<?xml version="1.0" encoding="UTF-8" standalone="no" ?>
<!DOCTYPE svg PUBLIC "-//W3C//DTD SVG 1.1//EN" "http://www.w3.org/Graphics/SVG/1.1/DTD/svg11.dtd">
<svg xmlns="http://www.w3.org/2000/svg" xmlns:xlink="http://www.w3.org/1999/xlink" version="1.1" width="500" height="500" viewBox="0 0 500 500" xml:space="preserve">
<desc>Created with Fabric.js 4.6.0</desc>
<defs>
</defs>
<g transform="matrix(1 0 0 1 191.92 204.19)" id="pAWZhxePoMf6dVACxtrTa"  >
<path style="stroke: rgb(61,130,156); stroke-width: 0; stroke-dasharray: none; stroke-linecap: butt; stroke-dashoffset: 0; stroke-linejoin: miter; stroke-miterlimit: 4; fill: rgb(37,33,69); fill-rule: nonzero; opacity: 1;" vector-effect="non-scaling-stroke"  transform=" translate(-153.29, -153.29)" d="M 0 0 L 306.58683 0 L 306.58683 306.58683 L 0 306.58683 z" stroke-linecap="round" />
</g>
<g transform="matrix(1 0 0 1 230.24 242.34)" id="moq66StT-QfxJ96oAH7tK"  >
<path style="stroke: rgb(61,130,156); stroke-width: 0; stroke-dasharray: none; stroke-linecap: butt; stroke-dashoffset: 0; stroke-linejoin: miter; stroke-miterlimit: 4; fill: rgb(53,36,117); fill-rule: nonzero; opacity: 1;" vector-effect="non-scaling-stroke"  transform=" translate(-153.29, -153.29)" d="M 0 0 L 306.58683 0 L 306.58683 306.58683 L 0 306.58683 z" stroke-linecap="round" />
</g>
<g transform="matrix(1 0 0 1 270.01 275.69)" id="VmCrB8xIg307JGhnHtnyo"  >
<path style="stroke: rgb(61,130,156); stroke-width: 0; stroke-dasharray: none; stroke-linecap: butt; stroke-dashoffset: 0; stroke-linejoin: miter; stroke-miterlimit: 4; fill: rgb(33,126,150); fill-rule: nonzero; opacity: 1;" vector-effect="non-scaling-stroke"  transform=" translate(-153.29, -153.29)" d="M 0 0 L 306.58683 0 L 306.58683 306.58683 L 0 306.58683 z" stroke-linecap="round" />
</g>
<g transform="matrix(1 0 0 1 308.08 309.65)" id="CeuCnvMJO1gwQZuRxE5aC"  >
<path style="stroke: rgb(61,130,156); stroke-width: 0; stroke-dasharray: none; stroke-linecap: butt; stroke-dashoffset: 0; stroke-linejoin: miter; stroke-miterlimit: 4; fill: rgb(212,31,94); fill-rule: nonzero; opacity: 1;" vector-effect="non-scaling-stroke"  transform=" translate(-153.29, -153.29)" d="M 0 0 L 306.58683 0 L 306.58683 306.58683 L 0 306.58683 z" stroke-linecap="round" />
</g>
</svg>